<svg xmlns="http://www.w3.org/2000/svg" version="1" width="971.681" height="195.661" viewBox="0 0 971.68109 195.66141"><g fill-rule="evenodd"><path d="M380.724 149.02c-35 25.796-85.73 39.56-129.406 39.56-61.243 0-116.377-22.65-158.088-60.325-3.277-2.962-.34-7 3.592-4.692 45.014 26.19 100.673 41.946 158.166 41.946 38.775 0 81.43-8.023 120.65-24.67 5.925-2.517 10.88 3.88 5.086 8.18" fill="#f90"/><path d="M395.274 132.37c-4.456-5.714-29.572-2.7-40.845-1.362-3.436.42-3.96-2.57-.867-4.72 20.004-14.077 52.827-10.014 56.655-5.295 3.828 4.746-.996 37.648-19.794 53.352-2.884 2.412-5.636 1.127-4.352-2.072 4.22-10.54 13.686-34.16 9.202-39.902" fill="#f90"/><path d="M355.215 26.9V13.217c0-2.07 1.573-3.46 3.46-3.46h61.27c1.966 0 3.54 1.415 3.54 3.46v11.72c-.027 1.965-1.68 4.534-4.615 8.598l-31.75 45.33c11.8-.29 24.252 1.467 34.948 7.497 2.412 1.364 3.067 3.357 3.25 5.323v14.603c0 1.992-2.2 4.325-4.508 3.12-18.85-9.884-43.887-10.96-64.73.104-2.123 1.154-4.352-1.153-4.352-3.146v-13.87c0-2.23.026-6.03 2.255-9.412l36.782-52.75h-32.01c-1.967 0-3.54-1.388-3.54-3.433M131.717 112.29h-18.64c-1.783-.132-3.2-1.47-3.33-3.173V13.452c0-1.914 1.6-3.435 3.592-3.435h17.38c1.81.08 3.25 1.47 3.382 3.2V25.72h.34C138.98 13.636 147.5 8 158.983 8c11.667 0 18.955 5.635 24.198 17.72C187.69 13.636 197.94 8 208.925 8c7.813 0 16.36 3.223 21.577 10.46 5.898 8.048 4.692 19.74 4.692 29.99l-.026 60.38c0 1.913-1.6 3.46-3.592 3.46h-18.613c-1.862-.132-3.356-1.626-3.356-3.46V58.124c0-4.037.367-14.104-.525-17.932-1.39-6.423-5.558-8.232-10.958-8.232-4.51 0-9.23 3.016-11.142 7.84-1.914 4.824-1.73 12.898-1.73 18.325v50.704c0 1.913-1.6 3.46-3.592 3.46h-18.614c-1.888-.132-3.356-1.626-3.356-3.46l-.026-50.705c0-10.67 1.756-26.374-11.483-26.374-13.396 0-12.872 15.312-12.872 26.375v50.704c0 1.913-1.6 3.46-3.59 3.46M476.232 8c27.66 0 42.63 23.75 42.63 53.953 0 29.18-16.544 52.33-42.63 52.33-27.16 0-41.947-23.754-41.947-53.353 0-29.782 14.97-52.93 41.947-52.93m.157 19.53c-13.738 0-14.603 18.72-14.603 30.386 0 11.692-.184 36.65 14.445 36.65 14.446 0 15.127-20.134 15.127-32.403 0-8.075-.342-17.723-2.78-25.378-2.097-6.66-6.266-9.255-12.19-9.255m78.337 84.76h-18.56c-1.863-.132-3.357-1.626-3.357-3.46l-.026-95.693c.157-1.756 1.704-3.12 3.592-3.12h17.276c1.626.08 2.963 1.18 3.33 2.675V27.32h.34C562.54 14.238 569.853 8 582.726 8c8.363 0 16.517 3.014 21.76 11.272 4.876 7.655 4.876 20.528 4.876 29.782v60.22c-.21 1.678-1.755 3.015-3.59 3.015h-18.693c-1.704-.132-3.12-1.39-3.303-3.016v-51.96c0-10.462 1.206-25.773-11.667-25.773-4.535 0-8.704 3.043-10.775 7.657-2.622 5.846-2.963 11.666-2.963 18.116v51.516c-.027 1.913-1.652 3.46-3.645 3.46m66.302-7.603c0-4.823 4.116-8.704 9.176-8.704 5.06 0 9.175 3.88 9.175 8.704 0 4.798-4.117 8.73-9.176 8.73-5.06 0-9.176-3.932-9.176-8.73m197.493 7.63c-1.94-.08-3.46-1.573-3.46-3.46V13.19c.103-1.704 1.545-3.042 3.328-3.146h6.843c1.888 0 3.41 1.363 3.566 3.146v13.947c4.877-11.064 13.948-19.715 25.404-19.715h1.389c12.164 0 21.052 8.966 24.355 21.996 5.165-12.873 14.865-21.996 27.66-21.996h1.413c9.045 0 17.75 5.82 22.258 14.68 4.352 8.47 4.195 19.743 4.195 29.207l-.027 57.545c.027 1.835-1.468 3.33-3.33 3.46h-8.18c-1.782-.078-3.224-1.337-3.46-2.988V51.31c0-6.844.34-14.106-2.438-20.345-2.83-6.37-8.258-10.356-14.078-10.644-6.502.315-12.48 5.06-16.36 11.457-5.033 8.26-4.85 15.704-4.85 25.352v52.25c-.235 1.572-1.625 2.804-3.33 2.936h-8.126c-1.94-.08-3.487-1.573-3.487-3.46l-.053-61.375c0-5.635-.34-12.268-2.936-17.328-3.015-5.768-8.415-9.543-14.078-9.83-5.873.34-11.798 4.823-15.31 10.04-4.536 6.66-5.402 14.89-5.402 23.36v55.133c0 1.835-1.494 3.33-3.355 3.46h-8.154m-56.154 1.992c-26.453 0-38.303-26.977-38.303-53.954 0-28.367 13.92-52.932 40.557-52.932h1.415c25.902 0 38.8 26.164 38.8 53.14 0 28.578-14.287 53.746-41.08 53.746h-1.389m1.94-13.082c8.704-.29 15.573-5.69 19.636-14.682 3.643-8.074 4.35-17.33 4.35-26.19 0-9.648-1.048-19.715-5.583-27.974-4.064-7.21-11.037-11.797-18.43-12.06-8.233.29-15.6 5.873-19.296 14.472-3.33 7.446-4.35 17.33-4.35 25.562 0 9.254 1.205 19.95 5.033 28 3.722 7.628 10.88 12.583 18.64 12.872m-84.603-.42c11.877-.367 18.117-9.883 20.686-22.205.524-1.546 1.704-2.726 3.434-2.726l7.84-.026c1.86.078 3.565 1.494 3.408 3.225-3.618 21-16.28 35.235-34.318 35.235h-1.416c-26.27 0-37.595-26.374-37.595-53.142 0-26.557 11.482-53.744 37.75-53.744h1.419c18.247 0 31.25 14.052 34.082 35.052 0 1.573-1.47 2.936-3.2 3.12l-8.205-.105c-1.73-.237-2.858-1.705-3.12-3.357-1.967-11.72-8.704-21.052-19.925-21.42-17.854.578-22.94 22.547-22.94 39.457 0 16.28 4.247 40.06 22.1 40.636M306.373 66.593c0 7.262.184 13.318-3.487 19.768-2.962 5.244-7.68 8.47-12.898 8.47-7.158 0-11.352-5.454-11.352-13.503 0-15.887 14.235-18.77 27.737-18.77v4.036m18.798 45.434c-1.232 1.1-3.014 1.18-4.404.446-6.187-5.14-7.314-7.524-10.696-12.427-10.225 10.434-17.487 13.554-30.726 13.554-15.704 0-27.895-9.674-27.895-29.048 0-15.127 8.18-25.43 19.87-30.464 10.12-4.457 24.252-5.243 35.053-6.476V45.2c0-4.43.34-9.674-2.28-13.5-2.255-3.436-6.607-4.85-10.46-4.85-7.106 0-13.424 3.643-14.97 11.193-.316 1.678-1.548 3.33-3.252 3.408l-18.062-1.94c-1.52-.34-3.225-1.572-2.78-3.905 4.143-21.917 23.963-28.524 41.685-28.524 9.07 0 20.92 2.413 28.08 9.282 9.07 8.468 8.205 19.767 8.205 32.063v29.048c0 8.73 3.617 12.558 7.026 17.277 1.18 1.678 1.442 3.697-.08 4.955-3.8 3.172-10.564 9.07-14.287 12.375l-.026-.053M62.006 66.593c0 7.262.183 13.318-3.487 19.768-2.963 5.244-7.656 8.47-12.9 8.47-7.157 0-11.325-5.454-11.325-13.503 0-15.887 14.235-18.77 27.71-18.77v4.036m18.798 45.434c-1.232 1.1-3.015 1.18-4.404.446-6.188-5.14-7.29-7.524-10.697-12.427C55.478 110.48 48.243 113.6 34.976 113.6c-15.677 0-27.894-9.674-27.894-29.048 0-15.127 8.206-25.43 19.872-30.464 10.12-4.457 24.25-5.243 35.052-6.476V45.2c0-4.43.34-9.674-2.255-13.5-2.28-3.436-6.632-4.85-10.46-4.85-7.104 0-13.448 3.643-14.995 11.193-.315 1.678-1.547 3.33-3.225 3.408l-18.09-1.94c-1.52-.34-3.198-1.572-2.78-3.905C14.37 13.688 34.165 7.08 51.887 7.08c9.07 0 20.92 2.413 28.078 9.282 9.072 8.468 8.206 19.767 8.206 32.063v29.048c0 8.73 3.618 12.558 7.026 17.277 1.206 1.678 1.47 3.697-.052 4.955-3.8 3.172-10.565 9.07-14.288 12.375l-.053-.053M954.82 11.066c4.484 0 8.206 3.618 8.206 8.18 0 4.457-3.67 8.206-8.205 8.206-4.51 0-8.18-3.67-8.18-8.206 0-4.614 3.724-8.18 8.18-8.18m.027-1.573c-5.244 0-9.78 4.247-9.78 9.78 0 5.426 4.458 9.752 9.78 9.752 5.348 0 9.752-4.38 9.752-9.753 0-5.532-4.484-9.78-9.753-9.78m-3.67 15.26h2.097v-4.405h1.94c.76 0 .97.314 1.127.944 0 .158.368 2.937.394 3.46h2.334c-.29-.523-.446-2.017-.55-2.91-.21-1.388-.315-2.358-1.81-2.463.76-.262 2.07-.682 2.07-2.7 0-2.884-2.542-2.884-3.853-2.884h-3.75V24.75m2.046-9.2h1.758c.577 0 1.625 0 1.625 1.493 0 .577-.262 1.547-1.678 1.547h-1.704v-3.04" fill="#221f1f"/></g></svg>