<svg id="Layer_1" xmlns="http://www.w3.org/2000/svg" viewBox="0 0 418.8 274.5"><style>.st0{fill:none;} .st1{fill:#F16364;} .st2{font-family:&apos;SnellRoundhand-Bold&apos;;} .st3{font-size:24px;} .st4{fill:#F16364;stroke:#F16364;stroke-miterlimit:10;}</style><path class="st0" d="M4.6 11.9h414.2v262.7H4.6z"/><text transform="translate(4.608 61.992)"><tspan x="0" y="0" class="st1 st2 st3">Honeymoon</tspan><tspan x="0" y="86.4" class="st1 st2 st3">Fund</tspan></text><path class="st4" d="M260.7 71.5c1.6.3 3.3.4 4.8.9 2.3.8 4.6 1.9 6.8 3 .8.4 1.4.6 2.2.3 6.7-1.9 13.2-1.3 19.4 1.9 5.2 2.7 8.4 7.2 10.8 12.3 1.3 2.8 2.1 5.7 2.3 8.8 0 .5.1 1 .2 1.8l1.6-1.6c4.7-4.6 10.3-7.3 16.7-8.5 8-1.5 14.8 1.2 20.9 6.3 3.4 2.8 5.9 6.3 7.2 10.6 1.7 5.7.5 10.9-2.1 16-5 10.1-12.9 16.6-23.7 19.9-7.3 2.2-14.7 4.3-21.9 6.7-8 2.6-14.3 7.4-18.1 15.1-.7 1.5-1.3 3.1-1.9 4.6-.4-2.4-.6-4.7-1.1-7-1.1-5.2-3.5-9.9-6.6-14.2-4-5.6-8.3-11-12.5-16.4-.3.1-.4 0-.4.1-4 5.3-7.9 10.7-9.3 17.4-1.2 5.3-.7 10.5 1.1 15.6.1.4.3.8.3 1.3-2.6-3-5.5-5.7-9-7.7-5.1-3-10.6-4.8-16.3-6.2-9.9-2.5-19.7-4.9-29.6-7.5-5.6-1.5-10.6-4.2-13.9-9.2-2-3.1-3.2-6.4-3.5-10.1-.5-7.2-.3-14.3 2.5-21.1 4-9.6 11.3-14.9 21.5-15.9 6-.6 11.5 1.6 16.5 4.9 2.1 1.4 3.8 3.2 5.6 4.7.5-2.3.8-4.8 1.6-7.2 2.4-7.4 6.7-13.4 13.8-17.2 2.8-1.5 5.8-2 8.9-2.3.4-.1.9-.1 1.3-.2 1.5.1 2.7.1 3.9.1zm45.3 31.4c-1.2-9.1-3.9-14.6-8.9-18.9-5.1-4.3-15.5-6-20.1-3.9.1.3.2.6.4.9 2 3.5 2.9 7.2 3.5 11.2 1.3 9.3-.5 17.9-5.7 25.7-2.6 4-5.4 7.9-8.1 11.9.2.3.4.6.6.8 3.6 4.6 7.2 9.2 10.7 13.9 3.6 4.8 6.4 10.1 7.5 16.1.3 1.5.4 3.1.6 5 .4-1 .7-1.8 1-2.5 3.1-7.5 8.4-12.7 16.2-15.1 7.1-2.2 14.1-4.4 21.2-6.5 10.4-3.1 17.7-9.8 22-19.7 2.5-5.7 2.4-11.3-.8-16.7-2-3.4-4.7-6-8-8-2.9-1.8-5.9-3.3-9.3-3.5-8-.5-14.9 2-20.8 7.4-.5.4-1.2 1.1-2 1.9zm-50.5 59.6c-.1-.3-.3-.7-.4-1-2.6-8.1-2.2-15.9 2.6-23.1 1.7-2.6 3.4-5.1 5.2-7.6.5-.8.5-1.3-.1-2.1-2.9-3.8-5.9-7.5-8.5-11.5-5.3-8.1-5.5-16.3 0-24.4 3.2-4.8 7-9 11.5-12.5.4-.3.8-.7 1.3-1-.1-.2-.1-.2-.2-.3-.1-.1-.3-.2-.4-.2-7-3.1-14.1-3.1-20.9.3-7.1 3.6-10.9 10.1-12.9 17.7-.4 1.5-.5 3-.7 4.4-1.9-1.6-3.7-3.4-5.8-4.8-4.8-3.4-10.2-5.1-16-4.1-9.4 1.7-15.9 7.2-18.8 16.4-1.8 5.7-2 11.6-1.4 17.5.3 2.8 1.2 5.4 2.7 7.7 3.3 4.9 8 7.9 13.5 9.4 8.7 2.4 17.4 4.6 26.2 6.8 8.8 2.1 17.1 5.1 23.1 12.4zm10-35.2c1.8-2.5 3.4-4.9 5-7.2 5-7.1 7.5-14.8 6.5-23.5-.6-4.8-1.5-9.3-4.6-13.2-1-1.2-1-1.2-2.3-.3-4.7 3.3-8.6 7.4-11.8 12.2-3.8 5.7-4.3 11.6-2 18 1.9 5.3 5.5 9.6 9.2 14z"/></svg>